# xmcd CD database file
#
# Track frame offsets:
#	150
#	14100
#	30263
#	50438
#	63263
#	83026
#	94005
#	109024
#	119281
#	130100
#	150529
#	160204
#	169992
#	183164
#	195971
#	207728
#	217422
#	224097
#	229366
#	247198
#	266398
#	283845
#
# Disc length: 4101 seconds
#
# Revision: 0
# Processed by: cddbd v1.5.2PL0 Copyright (c) Steve Scherf et al.
# Submitted via: CDex 1.51
#
DISCID=48100316
DTITLE=Chet Baker - Chet Baker sings CD2 (1953-1962)
DYEAR=2014
DGENRE=Jazz
TTITLE0=That Old Feeling
TTITLE1=It's Always You
TTITLE2=I've Never Been In Love Before
TTITLE3=Line For Lyons
TTITLE4=My Deal
TTITLE5=Like Someone In Love
TTITLE6=My Buddy
TTITLE7=Let Me Be Loved
TTITLE8=The Night We Called It A Day
TTITLE9=Little Girl Blue
TTITLE10=Embraceable You
TTITLE11=They All Laughed
TTITLE12=There's A Lull In My Life
TTITLE13=While My Lady Sleeps
TTITLE14=Forgetfull #1
TTITLE15=Come Rain Or Come Shine
TTITLE16=Blue Room
TTITLE17=Spring Is Here
TTITLE18=Chetty's Lullaby
TTITLE19=So Chi Ti Perdero
TTITLE20=Motivo Su Raggio Di Luna
TTITLE21=Il Mio Domani
EXTD=YEAR: 2014
EXTT0=
EXTT1=
EXTT2=
EXTT3=
EXTT4=
EXTT5=
EXTT6=
EXTT7=
EXTT8=
EXTT9=
EXTT10=
EXTT11=
EXTT12=
EXTT13=
EXTT14=
EXTT15=
EXTT16=
EXTT17=
EXTT18=
EXTT19=
EXTT20=
EXTT21=
PLAYORDER=
